<svg version="1.2" xmlns="http://www.w3.org/2000/svg" viewBox="0 0 1550 1735" width="1550" height="1735"><style>.a{fill:#fc2779}</style><path fill-rule="evenodd" class="a" d="m1538.4 84.1c-43.8 84.1-84.1 170.6-125.5 246.5-55.4 106-96.8 196-147.7 291.4-27.3 51.9-53 103.6-78.3 156.6-99.1 207.5-189 418.2-274.1 631.2-27.7 69-46.2 124.4-77.3 192.5-34.5 75.9-46.1 131.3-156.6 117.3-27.6-3.5-62.2-10.3-76.2-38-13.7-27.7-5.8-63.2-3.4-93.3 19.5-220.9 32.5-436.3 50.9-660 5.5-60.8 18.1-153.1 19.5-230.1-24.3 54-48.5 124.1-58.8 148.4-108.4 246.5-178.8 411.4-277.6 659.9-27.7 70.5-36.9 117.7-84.1 168.3-60.1 64.6-108.3 59.8-130.2 59.8-138.5 3.4-131.6-63.3-97.1-146.3 31.1-75.9 142.9-317.7 178.8-391.5 33.5-70.1 62.2-140.6 93.3-212 26.3-58.5 57.8-118.7 83.1-178.5 86.1-204.8 194.5-400.8 291.6-601.1 26.3-54.1 80.3-169.3 160-161.4 75.9 8.2 93.3 11.6 104.9 64.6 17.1 85.1-1.3 180.9-10.6 266-12.6 109.4-20.5 200.4-28.7 320.4-1 29.7-5.8 156.6-2.4 219.9 41.7-62.3 167.2-343.3 205.1-409l201.7-397.3c14-22.9 43.8-103.6 110.8-103.6 0 0 186.6-31.1 128.9 79.3z"/></svg>